<svg width="64" height="64" viewBox="0 0 64 64" fill="none" xmlns="http://www.w3.org/2000/svg">
<defs>
<linearGradient id="grad1" x1="0%" y1="0%" x2="100%" y2="100%">
  <stop offset="0%" style="stop-color:#3B82F6;stop-opacity:1" />
  <stop offset="100%" style="stop-color:#8B5CF6;stop-opacity:1" />
</linearGradient>
<linearGradient id="grad2" x1="0%" y1="0%" x2="100%" y2="100%">
  <stop offset="0%" style="stop-color:#10B981;stop-opacity:1" />
  <stop offset="100%" style="stop-color:#F59E0B;stop-opacity:1" />
</linearGradient>
</defs>
<path d="M32 2C15.432 2 2 15.432 2 32C2 48.568 15.432 62 32 62C48.568 62 62 48.568 62 32C62 15.432 48.568 2 32 2Z" fill="url(#grad1)"/>
<g transform="translate(12, 12) scale(0.6)">
  <path d="M24 38C24 38.5523 24.4477 39 25 39H39C39.5523 39 40 38.5523 40 38V25C40 24.4477 39.5523 24 39 24H25C24.4477 24 24 24.4477 24 25V38Z" stroke="white" stroke-width="4" stroke-linecap="round" stroke-linejoin="round"/>
  <path d="M14 28H24" stroke="white" stroke-width="4" stroke-linecap="round" stroke-linejoin="round"/>
  <path d="M40 31H50" stroke="white" stroke-width="4" stroke-linecap="round" stroke-linejoin="round"/>
  <path d="M32 48V39" stroke="white" stroke-width="4" stroke-linecap="round" stroke-linejoin="round"/>
  <path d="M32 24V14" stroke="white" stroke-width="4" stroke-linecap="round" stroke-linejoin="round"/>
  <rect x="8" y="8" width="12" height="12" rx="2" fill="url(#grad2)" />
  <rect x="44" y="25" width="12" height="12" rx="2" fill="url(#grad2)" />
  <rect x="26" y="48" width="12" height="12" rx="2" fill="url(#grad2)" />
</g>
</svg>
